<svg width="20" height="20" viewBox="0 0 20 20" fill="none" xmlns="http://www.w3.org/2000/svg">
<path d="M1.42857 0H8.57143C8.95031 0 9.31367 0.210714 9.58158 0.585786C9.84949 0.960859 10 1.46957 10 2C10 2.53043 9.84949 3.03914 9.58158 3.41421C9.31367 3.78929 8.95031 4 8.57143 4H1.42857C1.04969 4 0.686328 3.78929 0.418419 3.41421C0.15051 3.03914 0 2.53043 0 2C0 1.46957 0.15051 0.960859 0.418419 0.585786C0.686328 0.210714 1.04969 0 1.42857 0ZM11.4286 16H18.5714C18.9503 16 19.3137 16.2107 19.5816 16.5858C19.8495 16.9609 20 17.4696 20 18C20 18.5304 19.8495 19.0391 19.5816 19.4142C19.3137 19.7893 18.9503 20 18.5714 20H11.4286C11.0497 20 10.6863 19.7893 10.4184 19.4142C10.1505 19.0391 10 18.5304 10 18C10 17.4696 10.1505 16.9609 10.4184 16.5858C10.6863 16.2107 11.0497 16 11.4286 16ZM1.42857 8H18.5714C18.9503 8 19.3137 8.21071 19.5816 8.58579C19.8495 8.96086 20 9.46957 20 10C20 10.5304 19.8495 11.0391 19.5816 11.4142C19.3137 11.7893 18.9503 12 18.5714 12H1.42857C1.04969 12 0.686328 11.7893 0.418419 11.4142C0.15051 11.0391 0 10.5304 0 10C0 9.46957 0.15051 8.96086 0.418419 8.58579C0.686328 8.21071 1.04969 8 1.42857 8Z" fill="black"/>
</svg>
