<svg width="12" height="12" viewBox="0 0 12 12" fill="none" xmlns="http://www.w3.org/2000/svg">
<path d="M10.1788 7.59003L10.6534 1.71743L4.46424 2.29193L3.9896 8.16453" stroke="black" stroke-width="2" stroke-linecap="round" stroke-linejoin="round"/>
<path d="M8.29866 10.1249L8.85347 10.1697C9.46631 10.2192 10.0017 9.78135 10.0494 9.19164L10.1788 7.59002L8.5144 7.4555C7.90156 7.40596 7.36615 7.84384 7.31849 8.43356L7.27534 8.96743C7.22768 9.55715 7.68582 10.0753 8.29866 10.1249Z" stroke="black" stroke-width="2" stroke-linecap="round" stroke-linejoin="round"/>
<path d="M2.10945 10.6994L2.66426 10.7442C3.27709 10.7937 3.81251 10.3558 3.86018 9.76613L3.98962 8.16451L2.32519 8.02999C1.71237 7.98046 1.17694 8.41834 1.12928 9.00805L1.08613 9.54193C1.03847 10.1316 1.49663 10.6498 2.10945 10.6994Z" stroke="black" stroke-width="2" stroke-linecap="round" stroke-linejoin="round"/>
</svg>
